nColumns=19
nRows=111
DataType=double
version=3
OpenSimVersion=4.1
endheader
time	ground_force_calcn_r_vx	ground_force_calcn_r_vy	ground_force_calcn_r_vz	ground_force_calcn_r_px	ground_force_calcn_r_py	ground_force_calcn_r_pz	ground_force_calcn_r_mx	ground_force_calcn_r_my	ground_force_calcn_r_mz	ground_force_calcn_l_vx	ground_force_calcn_l_vy	ground_force_calcn_l_vz	ground_force_calcn_l_px	ground_force_calcn_l_py	ground_force_calcn_l_pz	ground_force_calcn_l_mx	ground_force_calcn_l_my	ground_force_calcn_l_mz
0.15	-6.79412	21.4396	-6.63972	1.20285	0	-0.170473	0.935359	-2.95163	0.914102	0	0	0	0	0	0	0	0	0
0.158333	-24.8968	58.1066	-12.5368	1.25297	0	-0.234508	0.911645	-2.12769	0.45906	0	0	0	0	0	0	0	0	0
0.166667	-58.23	133.733	-21.849	1.27048	0	-0.261574	0.450184	-1.03391	0.168918	0	0	0	0	0	0	0	0	0
0.175	-96.6728	243.828	-32.495	1.27603	0	-0.271032	-0.106064	0.267515	-0.0356518	0	0	0	0	0	0	0	0	0
0.183333	-112.923	364.581	-41.7588	1.2649	0	-0.275402	-0.486562	1.57091	-0.179931	0	0	0	0	0	0	0	0	0
0.191667	-99.6455	490.891	-47.8236	1.23465	0	-0.279541	-0.51161	2.52038	-0.245541	0	0	0	0	0	0	0	0	0
0.2	-87.6384	637.116	-48.9271	1.20028	0	-0.284252	-0.36964	2.68722	-0.206364	0	0	0	0	0	0	0	0	0
0.208333	-102.425	806.284	-42.8862	1.17592	0	-0.288263	-0.247875	1.95125	-0.103787	0	0	0	0	0	0	0	0	0
0.216667	-136.537	983.479	-29.3186	1.1585	0	-0.291434	-0.0735314	0.529648	-0.0157894	0	0	0	0	0	0	0	0	0
0.225	-162.812	1151.35	-11.5779	1.13905	0	-0.294433	0.162822	-1.15142	0.0115786	0	0	0	0	0	0	0	0	0
0.233333	-163.659	1301.94	4.65626	1.11488	0	-0.297208	0.326709	-2.59904	-0.00929516	0	0	0	0	0	0	0	0	0
0.241667	-145.935	1432.66	14.6398	1.08972	0	-0.299195	0.344024	-3.37732	-0.0345115	0	0	0	0	0	0	0	0	0
0.25	-122.359	1541.75	16.7044	1.06644	0	-0.30011	0.258004	-3.25089	-0.0352225	0	0	0	0	0	0	0	0	0
0.258333	-95.3042	1626.78	12.377	1.04462	0	-0.300227	0.133493	-2.27865	-0.0173365	0	0	0	0	0	0	0	0	0
0.266667	-61.68	1684.26	5.33935	1.02281	0	-0.300114	0.0284482	-0.776819	-0.00246263	0	0	0	0	0	0	0	0	0
0.275	-22.4774	1712.38	-0.246041	1.00051	0	-0.300103	-0.0105492	0.803668	-0.000115474	0	0	0	0	0	0	0	0	0
0.283333	17.5604	1711.96	-1.86792	0.978431	0	-0.300169	0.0207946	2.02726	-0.00221194	0	0	0	0	0	0	0	0	0
0.291667	56.8402	1684.87	0.0712639	0.956784	0	-0.300226	0.0876507	2.59815	0.000109893	0	0	0	0	0	0	0	0	0
0.3	96.25	1631.37	3.32246	0.935128	0	-0.300374	0.142522	2.41565	0.00491973	0	0	0	0	0	0	0	0	0
0.308333	135.15	1550.73	6.26128	0.913201	0	-0.300747	0.136153	1.56223	0.00630774	0	0	0	0	0	0	0	0	0
0.316667	170.119	1444.03	9.02115	0.891285	0	-0.301333	0.0298727	0.253569	0.0015841	0	0	0	0	0	0	0	0	0
0.325	196.802	1314.18	12.3117	0.869941	0	-0.302048	-0.183519	-1.22547	-0.0114806	0	0	0	0	0	0	0	0	0
0.333333	213.604	1164.67	15.8696	0.849239	0	-0.302807	-0.473969	-2.5843	-0.0352133	0	0	0	0	0	0	0	0	0
0.341667	219.499	1000.11	18.4595	0.82912	0	-0.303589	-0.78627	-3.58252	-0.0661239	0	0	0	0	0	0	0	0	0
0.35	213.348	827.685	19.027	0.809704	0	-0.304317	-1.05086	-4.07683	-0.0937189	0	0	0	0	0	0	0	0	0
0.358333	195.109	656.519	17.4798	0.791287	0	-0.304798	-1.20207	-4.04483	-0.107694	0	0	0	0	0	0	0	0	0
0.366667	167.333	497.929	14.5558	0.773911	0	-0.304761	-1.20121	-3.57442	-0.10449	0	0	0	0	0	0	0	0	0
0.375	134.865	362.306	11.2786	0.757598	0	-0.303825	-1.05129	-2.82423	-0.0879187	0	0	0	0	0	0	0	0	0
0.383333	102.613	252.469	8.42834	0.744176	0	-0.301667	-0.799975	-1.96826	-0.0657077	0	0	0	0	0	0	0	0	0
0.391667	74.3032	165.803	6.19773	0.736703	0	-0.297688	-0.518288	-1.15653	-0.0432311	0	0	0	0	0	0	0	0	0
0.4	51.2242	100.243	4.31707	0.737683	0	-0.290887	-0.26168	-0.512093	-0.0220539	0	0	0	0	0	0	0	0	0
0.408333	32.6996	54.7903	2.59426	0.747612	0	-0.280728	-0.0688316	-0.115332	-0.00546083	0	0	0	0	0	0	0	0	0
0.416667	18.1493	27.1213	1.19661	0.771851	0	-0.268689	0.0220675	0.0329765	0.00145495	0	0	0	0	0	0	0	0	0
0.425	7.977	12.901	0.370172	0.860977	0	-0.254397	-0.00240687	-0.00389257	-0.000111691	0	0	0	0	0	0	0	0	0
0.433333	0	0	0	0	0	0	0	0	0	0	0	0	0	0	0	0	0	0
0.441667	0	0	0	0	0	0	0	0	0	0	0	0	0	0	0	0	0	0
0.45	0	0	0	0	0	0	0	0	0	0	0	0	0	0	0	0	0	0
0.458333	0	0	0	0	0	0	0	0	0	0	0	0	0	0	0	0	0	0
0.466667	0	0	0	0	0	0	0	0	0	0	0	0	0	0	0	0	0	0
0.475	0	0	0	0	0	0	0	0	0	0	0	0	0	0	0	0	0	0
0.483333	0	0	0	0	0	0	0	0	0	0	0	0	0	0	0	0	0	0
0.491667	0	0	0	0	0	0	0	0	0	0	0	0	0	0	0	0	0	0
0.5	0	0	0	0	0	0	0	0	0	0	0	0	0	0	0	0	0	0
0.508333	0	0	0	0	0	0	0	0	0	0	0	0	0	0	0	0	0	0
0.516667	0	0	0	0	0	0	0	0	0	-3.12478	12.7444	-1.23895	1.17469	0	-0.317592	-0.272313	1.11063	-0.10797
0.525	0	0	0	0	0	0	0	0	0	-14.1006	37.421	0.206036	1.23933	0	-0.373008	0.00258583	-0.00686242	-3.77838e-05
0.533333	0	0	0	0	0	0	0	0	0	-40.3556	102.788	5.82881	1.26688	0	-0.384329	0.578727	-1.47405	-0.0835891
0.541667	0	0	0	0	0	0	0	0	0	-82.0915	225.892	18.1509	1.27538	0	-0.383089	1.1282	-3.10446	-0.24945
0.55	0	0	0	0	0	0	0	0	0	-118.581	394.342	35.5866	1.27169	0	-0.378198	1.35931	-4.52037	-0.407932
0.558333	0	0	0	0	0	0	0	0	0	-126.066	583.914	50.1679	1.25182	0	-0.373914	1.12225	-5.19805	-0.446599
0.566667	0	0	0	0	0	0	0	0	0	-115.699	788.372	52.8622	1.22045	0	-0.371498	0.682037	-4.64738	-0.311618
0.575	0	0	0	0	0	0	0	0	0	-120.738	999.535	42.4959	1.19343	0	-0.36945	0.34532	-2.85874	-0.121541
0.583333	0	0	0	0	0	0	0	0	0	-150.445	1197.47	26.3805	1.17624	0	-0.366107	0.0424352	-0.337763	-0.00744097
0.591667	0	0	0	0	0	0	0	0	0	-181.737	1365.69	12.072	1.16084	0	-0.362251	-0.292881	2.2009	0.0194548
0.6	0	0	0	0	0	0	0	0	0	-188.778	1498.14	2.55156	1.14053	0	-0.359719	-0.518256	4.11287	0.00700486
0.608333	0	0	0	0	0	0	0	0	0	-171.327	1597.4	-0.734122	1.1172	0	-0.359019	-0.533919	4.97808	-0.0022878
0.616667	0	0	0	0	0	0	0	0	0	-147.163	1668.64	4.22919	1.09547	0	-0.359134	-0.414367	4.69838	0.0119081
0.625	0	0	0	0	0	0	0	0	0	-123.221	1714.91	16.2072	1.07557	0	-0.358808	-0.254878	3.54724	0.0335241
0.633333	0	0	0	0	0	0	0	0	0	-93.1009	1734.31	28.2086	1.05505	0	-0.358046	-0.110292	2.05455	0.0334173
0.641667	0	0	0	0	0	0	0	0	0	-54.1816	1723.33	32.8198	1.03317	0	-0.357686	-0.0249096	0.792287	0.0150887
0.65	0	0	0	0	0	0	0	0	0	-12.5423	1682.22	29.4027	1.01138	0	-0.357809	-0.00136098	0.18254	0.00319054
0.658333	0	0	0	0	0	0	0	0	0	24.7705	1614.93	23.2489	0.990683	0	-0.357381	0.00607445	0.39603	0.00570132
0.666667	0	0	0	0	0	0	0	0	0	58.1991	1525.02	18.0264	0.970351	0	-0.355677	0.0516953	1.3546	0.016012
0.675	0	0	0	0	0	0	0	0	0	91.6753	1412.71	12.0907	0.949584	0	-0.353312	0.181329	2.79427	0.0239148
0.683333	0	0	0	0	0	0	0	0	0	124.239	1277.72	2.96123	0.928457	0	-0.351299	0.422038	4.34041	0.0100593
0.691667	0	0	0	0	0	0	0	0	0	148.812	1124.58	-7.50808	0.90764	0	-0.349668	0.740689	5.59747	-0.0373704
0.7	0	0	0	0	0	0	0	0	0	160.417	963.247	-14.6956	0.887757	0	-0.347524	1.04202	6.25698	-0.0954581
0.708333	0	0	0	0	0	0	0	0	0	161.055	802.518	-16.6181	0.868449	0	-0.344294	1.23897	6.17362	-0.12784
0.716667	0	0	0	0	0	0	0	0	0	153.214	646.4	-15.5663	0.849093	0	-0.340734	1.27687	5.38703	-0.129728
0.725	0	0	0	0	0	0	0	0	0	136.501	499.034	-14.559	0.830418	0	-0.338362	1.12052	4.09652	-0.119513
0.733333	0	0	0	0	0	0	0	0	0	112.557	367.506	-13.9845	0.81399	0	-0.337791	0.789445	2.57758	-0.0980831
0.741667	0	0	0	0	0	0	0	0	0	87.0293	258.172	-12.3946	0.799708	0	-0.337638	0.368804	1.09406	-0.0525247
0.75	0	0	0	0	0	0	0	0	0	65.1512	172.743	-9.44507	0.786406	0	-0.335273	-0.0494665	-0.131156	0.00717122
0.758333	0	0	0	0	0	0	0	0	0	47.1788	108.286	-6.73084	0.778225	0	-0.329987	-0.404467	-0.928344	0.0577041
0.766667	0	0	0	0	0	0	0	0	0	31.7187	61.4364	-5.65933	0.784646	0	-0.324532	-0.635463	-1.23084	0.113381
0.775	0	0	0	0	0	0	0	0	0	19.1346	30.8477	-5.50478	0.814436	0	-0.320476	-0.682893	-1.10092	0.19646
0.783333	0	0	0	0	0	0	0	0	0	10.4247	14.9321	-4.36442	0.870769	0	-0.296946	-0.531019	-0.760623	0.222318
0.791667	0	0	0	0	0	0	0	0	0	0	0	0	0	0	0	0	0	0
0.8	0	0	0	0	0	0	0	0	0	0	0	0	0	0	0	0	0	0
0.808333	0	0	0	0	0	0	0	0	0	0	0	0	0	0	0	0	0	0
0.816667	0	0	0	0	0	0	0	0	0	0	0	0	0	0	0	0	0	0
0.825	0	0	0	0	0	0	0	0	0	0	0	0	0	0	0	0	0	0
0.833333	0	0	0	0	0	0	0	0	0	0	0	0	0	0	0	0	0	0
0.841667	0	0	0	0	0	0	0	0	0	0	0	0	0	0	0	0	0	0
0.85	0	0	0	0	0	0	0	0	0	0	0	0	0	0	0	0	0	0
0.858333	0	0	0	0	0	0	0	0	0	0	0	0	0	0	0	0	0	0
0.866667	0	0	0	0	0	0	0	0	0	0	0	0	0	0	0	0	0	0
0.875	-1.10773	10.3474	-3.64137	1.17662	0	-0.0854806	0.356668	-3.33168	1.17246	0	0	0	0	0	0	0	0	0
0.883333	-10.5899	30.7543	-9.10239	1.24627	0	-0.194297	0.750185	-2.17862	0.64481	0	0	0	0	0	0	0	0	0
0.891667	-35.0221	83.3045	-18.4467	1.27891	0	-0.252504	0.286138	-0.680616	0.150713	0	0	0	0	0	0	0	0	0
0.9	-77.4896	182.097	-30.1985	1.29436	0	-0.269573	-0.446804	1.04997	-0.174124	0	0	0	0	0	0	0	0	0
0.908333	-118.776	312.568	-41.4604	1.29688	0	-0.274595	-1.04824	2.75853	-0.365904	0	0	0	0	0	0	0	0	0
0.916667	-127.993	449.441	-49.8321	1.28112	0	-0.277584	-1.16387	4.08685	-0.453132	0	0	0	0	0	0	0	0	0
0.925	-110.622	597.403	-53.5264	1.24903	0	-0.281632	-0.829496	4.47962	-0.401367	0	0	0	0	0	0	0	0	0
0.933333	-105.25	772.067	-49.9773	1.21764	0	-0.286235	-0.489038	3.58735	-0.232216	0	0	0	0	0	0	0	0	0
0.941667	-128.542	967.339	-36.9281	1.19594	0	-0.289912	-0.216317	1.62789	-0.0621445	0	0	0	0	0	0	0	0	0
0.95	-162.437	1157.51	-16.2197	1.17824	0	-0.292815	0.11836	-0.843425	0.0118186	0	0	0	0	0	0	0	0	0
0.958333	-178.566	1320.1	5.07304	1.1575	0	-0.295373	0.427045	-3.15706	-0.0121323	0	0	0	0	0	0	0	0	0
0.966667	-169.434	1448.87	18.7094	1.13333	0	-0.297426	0.551248	-4.71386	-0.0608704	0	0	0	0	0	0	0	0	0
0.975	-148.003	1549.06	20.8811	1.10942	0	-0.298728	0.49122	-5.14132	-0.0693043	0	0	0	0	0	0	0	0	0
0.983333	-123.068	1626.8	14.2297	1.0874	0	-0.299166	0.335017	-4.42849	-0.0387361	0	0	0	0	0	0	0	0	0
0.991667	-93.8796	1681.44	4.89669	1.06615	0	-0.298945	0.162501	-2.91049	-0.00847592	0	0	0	0	0	0	0	0	0
1	-58.2235	1709.63	-2.08886	1.04429	0	-0.298514	0.0379948	-1.11565	0.00136313	0	0	0	0	0	0	0	0	0
1.00833	-17.7899	1710.13	-5.05219	1.02202	0	-0.298275	-0.0043893	0.421938	-0.00124652	0	0	0	0	0	0	0	0	0
1.01667	23.1317	1683.17	-4.74665	1.00012	0	-0.298378	0.0180271	1.31174	-0.00369918	0	0	0	0	0	0	0	0	0
1.025	62.8065	1630.46	-2.41658	0.978529	0	-0.29871	0.0533238	1.38429	-0.00205171	0	0	0	0	0	0	0	0	0
1.03333	101.162	1553.3	1.1246	0.956975	0	-0.29915	0.045127	0.692908	0.000501672	0	0	0	0	0	0	0	0	0
1.04167	137.891	1452.48	5.35121	0.935288	0	-0.299663	-0.0510239	-0.53746	-0.00198011	0	0	0	0	0	0	0	0	0
1.05	169.496	1329.54	9.71526	0.913733	0	-0.300313	-0.25339	-1.98762	-0.014524	0	0	0	0	0	0	0	0	0
1.05833	191.536	1187.55	13.6313	0.892691	0	-0.301192	-0.536995	-3.32945	-0.038217	0	0	0	0	0	0	0	0	0
1.06667	202.569	1030.97	16.6018	0.872099	0	-0.302191	-0.844312	-4.29709	-0.0691966	0	0	0	0	0	0	0	0	0
